<svg viewBox="0 0 258 32">  
  <g id="logoGroup_4" data-name="logoGroup 4" transform="translate(0.2 0.419)" clip-path="url(#clip-path)">
    <path id="logoPath_11" data-name="logoPath 11" d="M26.093,30.562a4.73,4.73,0,0,1-2.959-.622,1.792,1.792,0,0,1-.519-1.483V3.628L14.17,23.513a4.629,4.629,0,0,1-.986.093,5.548,5.548,0,0,1-1.223-.178c-.744-.173-1.578-1.1-2.486-2.813L1.354,3.489v27H0L.044.213H1.5A5.4,5.4,0,0,1,4.035.678a3.276,3.276,0,0,1,1.074,1.3l8.733,19.079L22.614.166A17.434,17.434,0,0,1,24.653.28,2.409,2.409,0,0,1,26.04.9a1.963,1.963,0,0,1,.572,1.373V30.488Z" transform="translate(0 0.184)" fill="#131414"/>
    <path id="logoPath_12" data-name="logoPath 12" d="M16.139,30.562H14.678L23.543.166a5.39,5.39,0,0,1,2.4.423,4.846,4.846,0,0,1,1.828,2.568l8.68,27.331h-1.36a4.227,4.227,0,0,1-2.316-.417,2.437,2.437,0,0,1-.874-1.3l-2.44-7.33H18.808Zm12.9-10.391-5.17-15.71-4.689,15.71Z" transform="translate(16.171 0.184)" fill="#131414"/>
    <path id="logoPath_13" data-name="logoPath 13" d="M31.007,30.562a16.415,16.415,0,0,1-1.644-.093,2.187,2.187,0,0,1-1.288-.529,2.03,2.03,0,0,1-.54-1.483V.166a8.284,8.284,0,0,1,3.136.4,1.786,1.786,0,0,1,.9,1.709V30.488Z" transform="translate(30.336 0.184)" fill="#131414"/>
    <path id="logoPath_14" data-name="logoPath 14" d="M42.677,17.564a36.3,36.3,0,0,1-6.891-3.323c-2.507-1.753-3.762-3.923-3.762-6.558.132-2.919,1.757-5.095,4.88-6.472A15.8,15.8,0,0,1,43.249,0,13.753,13.753,0,0,1,50.7,1.992a7.3,7.3,0,0,1,2.768,3.17,5.036,5.036,0,0,1,.519,2.21c0,1.906-1.124,2.906-3.373,2.946-.191-4.475-1.789-7.335-4.794-8.551a5.736,5.736,0,0,0-2.013-.5h-.841a8.681,8.681,0,0,0-4.889,1.476,4.959,4.959,0,0,0-2.438,3.771,4.779,4.779,0,0,0,2.438,4.429,46.4,46.4,0,0,0,6.007,2.593,38.18,38.18,0,0,1,7.135,3.388c2.657,1.753,3.991,3.919,3.991,6.558-.13,2.925-1.847,5.095-5.162,6.465a17.336,17.336,0,0,1-6.709,1.218,15.21,15.21,0,0,1-7.886-1.992,7.473,7.473,0,0,1-2.913-3.162,4.835,4.835,0,0,1-.559-2.219c0-1.906,1.192-2.9,3.565-2.95.216,4.479,1.915,7.337,5.065,8.549a6.315,6.315,0,0,0,2.163.516h.9a10.334,10.334,0,0,0,5.3-1.489,5.012,5.012,0,0,0,2.77-3.765,4.7,4.7,0,0,0-2.913-4.433,59.16,59.16,0,0,0-6.15-2.654" transform="translate(35.237 -0.001)" fill="#131414"/>
    <path id="logoPath_15" data-name="logoPath 15" d="M60.861,30.654a15.35,15.35,0,0,1-9.229-2.931,15.438,15.438,0,0,1-5.7-7.544,14.568,14.568,0,0,1-.8-4.811,14.443,14.443,0,0,1,3.005-8.974A15.51,15.51,0,0,1,55.882.861,16.086,16.086,0,0,1,70.054,2.987a15.133,15.133,0,0,1,5.675,7.55,14.593,14.593,0,0,1,.8,4.83,14.543,14.543,0,0,1-2.978,8.974,15.448,15.448,0,0,1-7.768,5.514,15.157,15.157,0,0,1-4.924.8m.183-1.131a10.149,10.149,0,0,0,6.57-2.343,12.468,12.468,0,0,0,4.077-6.649,17.892,17.892,0,0,0,.612-4.877,20.3,20.3,0,0,0-.578-4.979A15.671,15.671,0,0,0,70.1,6.665a12.014,12.014,0,0,0-2.421-3,10.282,10.282,0,0,0-2.991-1.834,9.8,9.8,0,0,0-3.407-.662,10.528,10.528,0,0,0-3.5.571,11.263,11.263,0,0,0-3.188,1.772,12.642,12.642,0,0,0-2.631,2.991,13.933,13.933,0,0,0-1.776,4.118,20.081,20.081,0,0,0-.637,5.253,17.251,17.251,0,0,0,.637,4.871,13.494,13.494,0,0,0,1.73,3.811,11.43,11.43,0,0,0,2.558,2.766,10.191,10.191,0,0,0,3.117,1.641,10.492,10.492,0,0,0,3.453.556" transform="translate(49.727 0.09)" fill="#131414"/>
    <path id="logoPath_16" data-name="logoPath 16" d="M81.837,30.562a6.2,6.2,0,0,1-2.619-.444,5.16,5.16,0,0,1-2.354-2.574L63.587,3.489v27H62.173L62.226.213h1.362a5.25,5.25,0,0,1,2.486.465,3.567,3.567,0,0,1,1.124,1.3L80.475,26.26,80.435.166H81.79Z" transform="translate(68.497 0.184)" fill="#131414"/>
    <path id="logoPath_17" data-name="logoPath 17" d="M99.186,30.582l-18.258-.066V.188H99.186V1.432H84.921V12.324l8.636-.192v1.231l-8.636-.106V29.271H99.186Z" transform="translate(89.159 0.21)" fill="#131414"/>
    <path id="logoPath_18" data-name="logoPath 18" d="M99.4,28.471V1.053l-7.976.379V.188h20.267V1.432l-8.247-.379V30.516l-.572.066c-.553,0-1.1-.047-1.637-.087a2.221,2.221,0,0,1-1.288-.535,2.008,2.008,0,0,1-.546-1.489" transform="translate(100.719 0.209)" fill="#131414"/>
    <path id="logoPath_19" data-name="logoPath 19" d="M110.882,28.471V1.053l-7.984.379V.188h20.275V1.432l-8.26-.379V30.516l-.559.066c-.565,0-1.118-.047-1.644-.087a2.227,2.227,0,0,1-1.29-.535,2.006,2.006,0,0,1-.538-1.489" transform="translate(113.364 0.209)" fill="#131414"/>
    <path id="logoPath_20" data-name="logoPath 20" d="M132.13,30.582l-18.243-.066V.188H132.13V1.432H117.872V12.324l8.63-.192v1.231l-8.63-.106V29.271H132.13Z" transform="translate(125.47 0.21)" fill="#131414"/>
  </g>
</svg>
