<svg  xmlns="http://www.w3.org/2000/svg"  x="0px" y="0px"
	 viewBox="0 0 335.8 116.3" style="enable-background:new 0 0 335.8 116.3;" xml:space="preserve">
<style type="text/css">
	.st0{fill:#F1E91E;}
</style>
<g>
	<g>
		<path d="M0,88.6V60.5h1.7V73h24.9V60.5h1.7v28.1H0z M13.3,116.2c-4.3,0-7.4-0.9-9.2-2.6c-1.9-1.7-2.8-4.2-2.8-7.5
			c0-3.3,0.9-5.7,2.8-7.4c1.9-1.6,4.9-2.5,9.2-2.5h20.1c4.3,0,7.4,0.8,9.2,2.5c1.9,1.6,2.8,4.1,2.8,7.4c0,3.3-0.9,5.8-2.8,7.5
			c-1.9,1.7-4.9,2.6-9.2,2.6H13.3z M1.7,74.6V87h24.9V74.6H1.7z M3,106.2c0,2.9,0.8,5.1,2.5,6.4c1.6,1.3,4.3,2,7.9,2h20.1
			c3.6,0,6.2-0.7,7.9-2c1.6-1.3,2.5-3.5,2.5-6.4c0-2.9-0.8-5-2.5-6.3c-1.6-1.3-4.3-1.9-7.9-1.9H13.3c-3.6,0-6.2,0.6-7.9,1.9
			C3.8,101.1,3,103.2,3,106.2z M54.5,74.9h-11v16.9h-1.7V59.7h1.7v13.6h11V74.9z"/>
		<path d="M86.8,112.6V98.5h1.7v14.1h26.2v1.6H60.5v-1.6H86.8z M65,94.3V60.5h1.7v15.2h41.9V60.5h1.7v33.8H65z M66.7,77.3v15.4h41.9
			V77.3H66.7z"/>
		<path d="M124.1,74.6c0-2.5,0.4-4.6,1.3-6.5c0.8-1.8,2-3.4,3.4-4.6c1.4-1.2,3-2.2,4.7-2.8c1.8-0.6,3.6-0.9,5.4-0.9
			c1.9,0,3.7,0.3,5.5,0.9c1.8,0.6,3.4,1.5,4.8,2.7c1.4,1.2,2.5,2.7,3.4,4.6c0.8,1.9,1.3,4,1.3,6.5c0,2.5-0.4,4.6-1.3,6.5
			c-0.8,1.8-2,3.3-3.4,4.5c-1.4,1.2-3,2.1-4.8,2.7c-1.8,0.6-3.6,0.9-5.5,0.9c-1.9,0-3.7-0.3-5.4-0.9c-1.8-0.6-3.3-1.5-4.7-2.7
			c-1.4-1.2-2.5-2.7-3.4-4.5C124.6,79.2,124.1,77.1,124.1,74.6z M152.2,74.6c0-2.2-0.4-4.1-1.1-5.7c-0.7-1.6-1.7-3-2.9-4.1
			c-1.2-1.1-2.6-1.9-4.2-2.5c-1.6-0.6-3.3-0.8-5.1-0.8c-1.7,0-3.3,0.3-4.9,0.8c-1.6,0.6-3,1.4-4.2,2.5c-1.2,1.1-2.2,2.4-2.9,4.1
			c-0.7,1.6-1.1,3.5-1.1,5.7c0,2.2,0.4,4.1,1.1,5.8c0.7,1.6,1.7,3,2.9,4c1.2,1.1,2.6,1.9,4.2,2.4c1.6,0.5,3.2,0.8,4.9,0.8
			c1.8,0,3.5-0.3,5.1-0.8c1.6-0.5,3-1.3,4.2-2.4c1.2-1.1,2.2-2.4,2.9-4C151.8,78.7,152.2,76.8,152.2,74.6z M138.8,116.2
			c-4.3,0-7.4-0.9-9.2-2.6c-1.9-1.7-2.8-4.2-2.8-7.5c0-3.3,0.9-5.7,2.8-7.4c1.9-1.6,4.9-2.5,9.2-2.5h23.8c4.3,0,7.4,0.8,9.2,2.5
			c1.9,1.6,2.8,4.1,2.8,7.4c0,3.3-0.9,5.8-2.8,7.5c-1.9,1.7-4.9,2.6-9.2,2.6H138.8z M128.5,106.2c0,2.9,0.8,5.1,2.5,6.4
			c1.6,1.3,4.3,2,7.9,2h23.8c3.6,0,6.2-0.7,7.9-2c1.6-1.3,2.5-3.5,2.5-6.4c0-2.9-0.8-5-2.5-6.3c-1.6-1.3-4.3-1.9-7.9-1.9h-23.8
			c-3.6,0-6.2,0.6-7.9,1.9C129.3,101.1,128.5,103.2,128.5,106.2z M172.8,59.7v33.1h-1.7V81.5h-13.5v-1.7h13.5V69.3h-13.5v-1.7h13.5
			v-8H172.8z"/>
		<path d="M221.1,62.1v5.2c0,2.2,0.4,4.3,1.2,6.2c0.8,1.9,1.9,3.6,3.2,5.1c1.4,1.5,3,2.8,4.8,3.9c1.8,1.1,3.8,1.9,5.9,2.5l-0.9,1.4
			c-1.4-0.4-2.8-0.9-4.3-1.7c-1.5-0.7-2.9-1.6-4.3-2.7c-1.4-1.1-2.6-2.4-3.7-3.9c-1.1-1.5-2-3.2-2.6-5c-0.5,1.7-1.3,3.4-2.3,4.9
			c-1,1.5-2.3,2.9-3.7,4.2c-1.4,1.3-2.9,2.4-4.6,3.5c-1.7,1-3.4,1.9-5.2,2.6l-1-1.3c5-2.1,8.9-4.8,11.7-8s4.2-7,4.2-11.3v-5.5h-13.6
			v-1.6h28.9v1.6H221.1z M248.1,104.1v-8.7h-39.2v-1.6h41v11.9h-39.2v8.9h40.5v1.6h-42.2v-12.1H248.1z M260.8,73.6h-11v15h-1.7V59.7
			h1.7V72h11V73.6z"/>
		<path d="M267.6,71.6V70h27.4v1.6H267.6z M292.9,100.9c0,2.4-0.2,4.5-0.5,6.3c-0.4,1.8-1,3.4-1.9,4.6c-0.9,1.2-2.1,2.2-3.6,2.8
			c-1.5,0.7-3.4,1-5.7,1s-4.2-0.3-5.7-1c-1.5-0.7-2.7-1.6-3.6-2.8c-0.9-1.2-1.5-2.8-1.9-4.6c-0.4-1.8-0.5-3.9-0.5-6.3v-5.8
			c0-2.3,0.2-4.4,0.5-6.3c0.4-1.9,1-3.4,1.9-4.6c0.9-1.2,2.1-2.2,3.6-2.8c1.5-0.7,3.4-1,5.7-1s4.2,0.3,5.7,1
			c1.5,0.7,2.7,1.6,3.6,2.8c0.9,1.2,1.5,2.8,1.9,4.6c0.4,1.9,0.5,4,0.5,6.3V100.9z M271.3,100.9c0,2.3,0.2,4.2,0.5,5.8
			c0.3,1.6,0.9,3,1.6,4.1c0.8,1.1,1.8,1.9,3.1,2.4c1.3,0.5,2.9,0.8,4.8,0.8s3.5-0.3,4.8-0.8c1.3-0.5,2.3-1.3,3.1-2.4
			c0.8-1.1,1.3-2.5,1.6-4.1c0.3-1.6,0.5-3.6,0.5-5.8v-5.8c0-2.3-0.2-4.2-0.5-5.8c-0.3-1.6-0.9-3-1.6-4.1c-0.8-1.1-1.8-1.9-3.1-2.4
			c-1.3-0.5-2.9-0.8-4.8-0.8s-3.5,0.3-4.8,0.8c-1.3,0.5-2.3,1.3-3.1,2.4c-0.8,1.1-1.3,2.4-1.6,4.1c-0.3,1.6-0.5,3.6-0.5,5.8V100.9z
			 M273.9,61.5v-1.6h14.6v1.6H273.9z M316.3,59.7h1.7v56.6h-1.7V85.7h-12v29.7h-1.7V60.2h1.7v23.9h12V59.7z"/>
		<path d="M332.6,103.6l-0.4-41.9h2.2l-0.4,41.9H332.6z M332.3,115.1v-4.9h2v4.9H332.3z"/>
	</g>
	<path d="M186.8,75.2c0,0,7-14.1-10.9-26.6S165.7-2.2,203.2,0.1s24.9,44.6,0,54.8C203.2,54.9,191.5,58.8,186.8,75.2z"/>
	<g>
		<path class="st0" d="M174.6,14.1h10.3v0.6h-9.6v20.2h10.1v0.6h-10.8V14.1z M193.1,13.7h0.7V36h-0.7V24h-4.7v11.7h-0.7V13.9h0.7
			v9.4h4.7V13.7z"/>
		<path class="st0" d="M198.9,25.1v-11h0.7V19h9.8v-4.9h0.7v11H198.9z M199.6,19.6v4.9h9.8v-4.9H199.6z M199.7,29v-0.6h16.4v7.7
			h-0.7V29H199.7z M220.4,19.7h-4.3v6.9h-0.7V13.7h0.7v5.4h4.3V19.7z"/>
	</g>
</g>
</svg>